HIERARCHY
ROOT reference
{
  OFFSET 0 0 0
  CHANNELS 6 Xposition Yposition Zposition Zrotation Xrotation Yrotation
  JOINT Hips
  {
    OFFSET 350.331 86.7696 215.823
    CHANNELS 3 Zrotation Xrotation Yrotation
    JOINT RightUpLeg
    {
      OFFSET -9.29271 -1.56052 -0.0234997
      CHANNELS 3 Zrotation Xrotation Yrotation
      JOINT RightLeg
      {
        OFFSET -0.0199852 -41.8973 0.0465042
        CHANNELS 3 Zrotation Xrotation Yrotation
        JOINT RightFoot
        {
          OFFSET -0.344404 -43.5008 0.46033
          CHANNELS 3 Zrotation Xrotation Yrotation
          End Site
          {
            OFFSET 0 -7.69 17.5
          }
        }
      }
    }
    JOINT LeftUpLeg
    {
      OFFSET 9.27671 -1.61046 0.00923455
      CHANNELS 3 Zrotation Xrotation Yrotation
      JOINT LeftLeg
      {
        OFFSET 0.0572944 -41.8832 0.025786
        CHANNELS 3 Zrotation Xrotation Yrotation
        JOINT LeftFoot
        {
          OFFSET 0.630082 -40.4663 0.064708
          CHANNELS 3 Zrotation Xrotation Yrotation
          End Site
          {
            OFFSET 0 -7.69 17.5
          }
        }
      }
    }
    JOINT Spine
    {
      OFFSET 0.0336257 14.3009 0.0467062
      CHANNELS 3 Zrotation Xrotation Yrotation
      JOINT Spine1
      {
        OFFSET 0.0295985 9.72711 0.0239471
        CHANNELS 3 Zrotation Xrotation Yrotation
        JOINT Spine2
        {
          OFFSET 0.0515174 10.1206 0.00128176
          CHANNELS 3 Zrotation Xrotation Yrotation
          JOINT Spine3
          {
            OFFSET 0.0546141 9.71668 0.0122483
            CHANNELS 3 Zrotation Xrotation Yrotation
            JOINT Neck
            {
              OFFSET 0.0872189 10.3831 0.0511468
              CHANNELS 3 Zrotation Xrotation Yrotation
              JOINT Head
              {
                OFFSET 0.0544 9.47189 0.0313815
                CHANNELS 3 Zrotation Xrotation Yrotation
                End Site
                {
                  OFFSET 0 15.95 0
                }
              }
            }
            JOINT RightShoulder
            {
              OFFSET -3.15364 6.93551 0.0260198
              CHANNELS 3 Zrotation Xrotation Yrotation
              JOINT RightArm
              {
                OFFSET -12.7567 0.0626665 0.0664987
                CHANNELS 3 Zrotation Xrotation Yrotation
                JOINT RightForeArm
                {
                  OFFSET -26.5087 -0.073346 0.274032
                  CHANNELS 3 Zrotation Xrotation Yrotation
                  JOINT RightHand
                  {
                    OFFSET -26.0005 -0.196673 0.105827
                    CHANNELS 3 Zrotation Xrotation Yrotation
                    JOINT RightHandThumb1
                    {
                      OFFSET -2.48905 0.190105 3.12053
                      CHANNELS 3 Zrotation Xrotation Yrotation
                      JOINT RightHandThumb2
                      {
                        OFFSET -3.68274 0 0
                        CHANNELS 3 Zrotation Xrotation Yrotation
                        JOINT RightHandThumb3
                        {
                          OFFSET -2.55832 0 0
                          CHANNELS 3 Zrotation Xrotation Yrotation
                          End Site
                          {
                            OFFSET -2.194 0 0
                          }
                        }
                      }
                    }
                    JOINT RightInHandIndex
                    {
                      OFFSET -3.22368 0.508421 1.97842
                      CHANNELS 3 Zrotation Xrotation Yrotation
                      JOINT RightHandIndex1
                      {
                        OFFSET -5.21684 -0.091368 0.999158
                        CHANNELS 3 Zrotation Xrotation Yrotation
                        JOINT RightHandIndex2
                        {
                          OFFSET -3.61937 0 0
                          CHANNELS 3 Zrotation Xrotation Yrotation
                          JOINT RightHandIndex3
                          {
                            OFFSET -2.0521 0 0
                            CHANNELS 3 Zrotation Xrotation Yrotation
                            End Site
                            {
                              OFFSET -1.805 0 0
                            }
                          }
                        }
                      }
                    }
                    JOINT RightInHandMiddle
                    {
                      OFFSET -3.38211 0.517263 0.756737
                      CHANNELS 3 Zrotation Xrotation Yrotation
                      JOINT RightHandMiddle1
                      {
                        OFFSET -5.17411 -0.084 0.313895
                        CHANNELS 3 Zrotation Xrotation Yrotation
                        JOINT RightHandMiddle2
                        {
                          OFFSET -3.94947 0 0
                          CHANNELS 3 Zrotation Xrotation Yrotation
                          JOINT RightHandMiddle3
                          {
                            OFFSET -2.47579 0 0
                            CHANNELS 3 Zrotation Xrotation Yrotation
                            End Site
                            {
                              OFFSET -1.975 0 0
                            }
                          }
                        }
                      }
                    }
                    JOINT RightInHandRing
                    {
                      OFFSET -3.36516 0.537895 -0.128947
                      CHANNELS 3 Zrotation Xrotation Yrotation
                      JOINT RightHandRing1
                      {
                        OFFSET -4.63474 -0.022105 -0.478947
                        CHANNELS 3 Zrotation Xrotation Yrotation
                        JOINT RightHandRing2
                        {
                          OFFSET -3.44238 0 0
                          CHANNELS 3 Zrotation Xrotation Yrotation
                          JOINT RightHandRing3
                          {
                            OFFSET -2.3881 0 0
                            CHANNELS 3 Zrotation Xrotation Yrotation
                            End Site
                            {
                              OFFSET -1.857 0 0
                            }
                          }
                        }
                      }
                    }
                    JOINT RightInHandPinky
                    {
                      OFFSET -3.16105 0.469368 -1.20179
                      CHANNELS 3 Zrotation Xrotation Yrotation
                      JOINT RightHandPinky1
                      {
                        OFFSET -4.14105 -0.022105 -1.09053
                        CHANNELS 3 Zrotation Xrotation Yrotation
                        JOINT RightHandPinky2
                        {
                          OFFSET -2.75653 0 0
                          CHANNELS 3 Zrotation Xrotation Yrotation
                          JOINT RightHandPinky3
                          {
                            OFFSET -1.74189 0 0
                            CHANNELS 3 Zrotation Xrotation Yrotation
                            End Site
                            {
                              OFFSET -1.645 0 0
                            }
                          }
                        }
                      }
                    }
                  }
                }
              }
            }
            JOINT LeftShoulder
            {
              OFFSET 3.27252 6.91581 -0.0198585
              CHANNELS 3 Zrotation Xrotation Yrotation
              JOINT LeftArm
              {
                OFFSET 12.8319 -0.0466028 -0.0574599
                CHANNELS 3 Zrotation Xrotation Yrotation
                JOINT LeftForeArm
                {
                  OFFSET 26.4942 -0.039105 -0.0936
                  CHANNELS 3 Zrotation Xrotation Yrotation
                  JOINT LeftHand
                  {
                    OFFSET 26.0008 0.022674 -0.016655
                    CHANNELS 3 Zrotation Xrotation Yrotation
                    JOINT LeftHandThumb1
                    {
                      OFFSET 2.48905 0.190105 3.12053
                      CHANNELS 3 Zrotation Xrotation Yrotation
                      JOINT LeftHandThumb2
                      {
                        OFFSET 3.68274 0 0
                        CHANNELS 3 Zrotation Xrotation Yrotation
                        JOINT LeftHandThumb3
                        {
                          OFFSET 2.55832 0 0
                          CHANNELS 3 Zrotation Xrotation Yrotation
                          End Site
                          {
                            OFFSET 2.194 0 0
                          }
                        }
                      }
                    }
                    JOINT LeftInHandIndex
                    {
                      OFFSET 3.22368 0.508421 1.97842
                      CHANNELS 3 Zrotation Xrotation Yrotation
                      JOINT LeftHandIndex1
                      {
                        OFFSET 5.21684 -0.091368 0.999158
                        CHANNELS 3 Zrotation Xrotation Yrotation
                        JOINT LeftHandIndex2
                        {
                          OFFSET 3.61937 0 0
                          CHANNELS 3 Zrotation Xrotation Yrotation
                          JOINT LeftHandIndex3
                          {
                            OFFSET 2.0521 0 0
                            CHANNELS 3 Zrotation Xrotation Yrotation
                            End Site
                            {
                              OFFSET 1.805 0 0
                            }
                          }
                        }
                      }
                    }
                    JOINT LeftInHandMiddle
                    {
                      OFFSET 3.38211 0.517263 0.756737
                      CHANNELS 3 Zrotation Xrotation Yrotation
                      JOINT LeftHandMiddle1
                      {
                        OFFSET 5.17411 -0.084 0.313895
                        CHANNELS 3 Zrotation Xrotation Yrotation
                        JOINT LeftHandMiddle2
                        {
                          OFFSET 3.94947 0 0
                          CHANNELS 3 Zrotation Xrotation Yrotation
                          JOINT LeftHandMiddle3
                          {
                            OFFSET 2.47579 0 0
                            CHANNELS 3 Zrotation Xrotation Yrotation
                            End Site
                            {
                              OFFSET 1.975 0 0
                            }
                          }
                        }
                      }
                    }
                    JOINT LeftInHandRing
                    {
                      OFFSET 3.36516 0.537895 -0.128947
                      CHANNELS 3 Zrotation Xrotation Yrotation
                      JOINT LeftHandRing1
                      {
                        OFFSET 4.63474 -0.022105 -0.478947
                        CHANNELS 3 Zrotation Xrotation Yrotation
                        JOINT LeftHandRing2
                        {
                          OFFSET 3.44238 0 0
                          CHANNELS 3 Zrotation Xrotation Yrotation
                          JOINT LeftHandRing3
                          {
                            OFFSET 2.3881 0 0
                            CHANNELS 3 Zrotation Xrotation Yrotation
                            End Site
                            {
                              OFFSET 1.857 0 0
                            }
                          }
                        }
                      }
                    }
                    JOINT LeftInHandPinky
                    {
                      OFFSET 3.16105 0.469368 -1.20179
                      CHANNELS 3 Zrotation Xrotation Yrotation
                      JOINT LeftHandPinky1
                      {
                        OFFSET 4.14105 -0.022105 -1.09053
                        CHANNELS 3 Zrotation Xrotation Yrotation
                        JOINT LeftHandPinky2
                        {
                          OFFSET 2.75653 0 0
                          CHANNELS 3 Zrotation Xrotation Yrotation
                          JOINT LeftHandPinky3
                          {
                            OFFSET 1.74189 0 0
                            CHANNELS 3 Zrotation Xrotation Yrotation
                            End Site
                            {
                              OFFSET 1.645 0 0
                            }
                          }
                        }
                      }
                    }
                  }
                }
              }
            }
          }
        }
      }
    }
  }
}
MOTION
Frames: 2
Frame Time: 0.00833333
3.000000000000000000e+02 0.000000000000000000e+00 0.000000000000000000e+00 0.000000000000000000e+00 0.000000000000000000e+00 0.000000000000000000e+00 1.686555718682375502e-03 1.191386527478697707e-02 4.183701650129059701e-02 -4.556779925035006618e-02 1.223614769485610598e-02 -6.651528369409573371e-02 -1.756529379909050346e-03 7.196872542943160041e-03 -1.209865790765303657e-02 1.620970681973058110e-03 -7.925994649088254074e-03 9.488926300123087798e-03 -1.569574158701024860e-02 -1.485440582106838971e-02 -5.043821498561998351e-02 -5.734481830713371829e-03 -1.460732495806188296e-02 -2.940223250362960453e-03 -3.671072856964317267e-03 4.879631638057396574e-03 7.734157230854138941e-03 7.967620054860229985e-04 7.550874828195872079e-03 -1.684472632199456033e-02 -3.890374651112948651e-04 1.320259845261286154e-03 -4.704627915512346777e-03 -6.501541534697018003e-04 2.005882139434800142e-03 -7.040820637864892567e-03 4.575640161347192510e-04 3.825726902002741267e-04 -1.423246855716013754e-04 3.426828082070385896e-04 1.051149009127835127e-04 1.196327126640179964e-03 1.629879635756067979e-02 -1.361291193709569976e-02 -1.545349536961244073e-02 -3.149461741365333807e-03 -3.679230490745136889e-02 1.959778727180968086e-02 -3.506781992180575958e-01 2.956022441998604755e-01 1.990070279290976074e-01 -9.501779468072463208e-01 4.546033517739971330e-01 -1.244810821941928713e+00 8.294356946536551867e-01 -6.273470614690359604e-01 6.456313064237534372e-01 0.000000000000000000e+00 0.000000000000000000e+00 0.000000000000000000e+00 1.117144584953674901e-14 2.973506963184840748e-15 0.000000000000000000e+00 3.091183066855054649e-15 1.720813403811754033e-15 0.000000000000000000e+00 -1.030519990748227697e-15 5.764803044789669528e-15 5.421585623178543644e-15 0.000000000000000000e+00 0.000000000000000000e+00 0.000000000000000000e+00 0.000000000000000000e+00 2.043920730951682739e-15 1.010384596643681097e-14 0.000000000000000000e+00 -8.893923572366813968e-16 7.907392028550809387e-15 -1.030519990748227697e-15 5.764803044789669528e-15 5.421585623178543644e-15 0.000000000000000000e+00 -6.677970594622379990e-15 6.814579251513051511e-15 0.000000000000000000e+00 -7.421867549292034107e-16 1.124648453470830966e-14 0.000000000000000000e+00 7.634853073616948000e-16 -1.009423608571485987e-15 -1.030519990748227697e-15 5.764803044789669528e-15 5.421585623178543644e-15 0.000000000000000000e+00 0.000000000000000000e+00 0.000000000000000000e+00 0.000000000000000000e+00 2.164347917840274891e-15 5.440555839661249083e-15 0.000000000000000000e+00 2.973642337397566718e-15 -2.998640573491030617e-15 -1.030519990748227697e-15 5.764803044789669528e-15 5.421585623178543644e-15 0.000000000000000000e+00 0.000000000000000000e+00 0.000000000000000000e+00 0.000000000000000000e+00 5.885915603255483810e-15 2.691991369599531938e-15 0.000000000000000000e+00 -1.625642146805473382e-15 2.574497156351629191e-17 -2.719855393212143157e-03 -4.253565869555379908e-03 3.420799914716919632e-02 -1.822749085297296900e-01 -9.770764996977873013e-03 1.552399587355455246e-01 1.621148801311856902e-01 -2.489644806626582774e-01 1.031768949698684823e-01 1.757507891278619061e-01 3.769993634004381033e-01 1.565395419553297363e-01 0.000000000000000000e+00 0.000000000000000000e+00 0.000000000000000000e+00 6.248380179443926372e-15 -2.540560890200238779e-15 0.000000000000000000e+00 6.051887200451074931e-15 -3.653744582077942503e-15 0.000000000000000000e+00 -8.282787039508317175e-16 -3.553463959205588707e-15 7.567058447316007092e-16 0.000000000000000000e+00 0.000000000000000000e+00 0.000000000000000000e+00 0.000000000000000000e+00 2.323093812921955142e-15 -1.628167847284665409e-15 0.000000000000000000e+00 4.419676766325417127e-16 -1.329149325879201686e-15 -8.282787039508317175e-16 -3.553463959205588707e-15 7.567058447316007092e-16 0.000000000000000000e+00 -7.311730858808829533e-16 -1.970192045652138096e-15 0.000000000000000000e+00 2.864857069472173472e-15 -5.281064149254136660e-15 0.000000000000000000e+00 1.518365703138111207e-15 -8.819634661028923948e-15 -8.282787039508317175e-16 -3.553463959205588707e-15 7.567058447316007092e-16 0.000000000000000000e+00 0.000000000000000000e+00 0.000000000000000000e+00 0.000000000000000000e+00 1.355675384989308188e-15 -3.963544128322644028e-15 0.000000000000000000e+00 -8.114356346788841347e-16 -3.616846732754019313e-15 -8.282787039508317175e-16 -3.553463959205588707e-15 7.567058447316007092e-16 0.000000000000000000e+00 0.000000000000000000e+00 0.000000000000000000e+00 0.000000000000000000e+00 6.661013172234402327e-16 -4.896820436712436063e-15 0.000000000000000000e+00 -2.976790647336324262e-15 -1.062919934717139107e-14
3.000000000000000000e+02 0.000000000000000000e+00 0.000000000000000000e+00 0.000000000000000000e+00 0.000000000000000000e+00 0.000000000000000000e+00 -5.225535769669267458e-03 1.142162590011806724e-03 6.722845846845135545e-03 -3.008825122606368328e-03 1.023998058479355655e-02 -1.987266849453853124e-02 -9.133241866904450845e-04 -1.157276397895924160e-02 1.000853939165599095e-02 -3.051668542043335999e-03 1.074154089605078993e-02 1.865495033821958255e-03 -1.293874632833132013e-04 4.871834906184572059e-03 4.649187350930777431e-03 1.223093881997119881e-02 -8.072867399314028955e-03 -1.747632172805711759e-02 -6.455302634862883186e-03 4.679485230736963979e-03 -1.722204616758172060e-04 -3.478541903847271258e-03 9.400474068937212518e-03 2.002556002714401141e-03 -6.273361883437025442e-04 2.387573284780511278e-03 1.081860787495931881e-04 -9.474105485278114811e-04 3.658470901900088071e-03 1.117570223892724640e-04 8.483440570876005238e-05 -2.597477492402895530e-04 -1.967228536957417071e-04 6.109772342898707226e-05 -3.105614808829040233e-04 -3.394855098769484895e-05 5.131701831282184378e-03 -1.262155223041884142e-02 -4.515816461932951713e-03 -4.005991240987398852e-03 -3.879378045687551652e-02 7.701654777982944178e-03 9.767202908029191943e-02 -8.323860008667109678e-02 -2.679757009491628983e-02 -7.172459625889778811e-01 6.804601604219328026e-01 -9.246532918348779884e-01 4.617864448365501251e-01 -3.315180216507152000e-01 3.789804176962450755e-01 0.000000000000000000e+00 0.000000000000000000e+00 0.000000000000000000e+00 7.079736640467282502e-15 -1.014779081517255289e-15 0.000000000000000000e+00 8.188502431860139530e-15 4.717589684951760232e-16 0.000000000000000000e+00 -1.470702810605389906e-15 -1.260828339269489481e-15 2.150591322271347349e-15 0.000000000000000000e+00 0.000000000000000000e+00 0.000000000000000000e+00 0.000000000000000000e+00 6.213724500762546774e-16 3.650344390149078212e-15 0.000000000000000000e+00 1.400048583825452770e-15 5.742213735915743657e-15 -1.470702810605389906e-15 -1.260828339269489481e-15 2.150591322271347349e-15 0.000000000000000000e+00 -1.127366273844219472e-15 -2.315249479282020217e-15 0.000000000000000000e+00 3.024465994943056025e-15 3.844216672886084485e-15 0.000000000000000000e+00 4.118765183939001360e-16 5.161709939653469994e-15 -1.470702810605389906e-15 -1.260828339269489481e-15 2.150591322271347349e-15 0.000000000000000000e+00 0.000000000000000000e+00 0.000000000000000000e+00 0.000000000000000000e+00 2.371544237689323366e-15 2.234269363494267695e-16 0.000000000000000000e+00 7.297622763857790092e-15 6.303740319059243233e-15 -1.470702810605389906e-15 -1.260828339269489481e-15 2.150591322271347349e-15 0.000000000000000000e+00 0.000000000000000000e+00 0.000000000000000000e+00 0.000000000000000000e+00 2.910034809653911336e-15 2.191441326678333649e-15 0.000000000000000000e+00 2.736668683859967896e-16 5.414483475002271665e-15 -1.074599554936550572e-03 -1.268716915512976481e-02 3.806729647114946713e-03 2.302518134015306417e-02 4.183772418486638583e-02 -2.244117475963306255e-02 2.321392080584646911e-01 -1.752544324641512052e-01 2.082395524813469290e-01 -6.505285231359510083e-03 9.016933251628453730e-03 -2.791133655269657787e-02 0.000000000000000000e+00 0.000000000000000000e+00 0.000000000000000000e+00 -1.432127985999612817e-15 -1.587006440856177439e-16 0.000000000000000000e+00 3.277697778537257820e-15 -1.201211933479223194e-15 0.000000000000000000e+00 -1.859378157203783705e-15 -1.538980224126199060e-15 2.649468180547592501e-15 0.000000000000000000e+00 0.000000000000000000e+00 0.000000000000000000e+00 0.000000000000000000e+00 3.378563259862469717e-16 2.894870194571220578e-15 0.000000000000000000e+00 3.313055723020316206e-16 5.604449997783904123e-16 -1.859378157203783705e-15 -1.538980224126199060e-15 2.649468180547592501e-15 0.000000000000000000e+00 -6.020252686293770604e-16 6.454147891312413838e-16 0.000000000000000000e+00 -1.140755693033085979e-15 5.094237166685828335e-16 0.000000000000000000e+00 4.047983270241782772e-16 -2.591365578717156908e-15 -1.859378157203783705e-15 -1.538980224126199060e-15 2.649468180547592501e-15 0.000000000000000000e+00 0.000000000000000000e+00 0.000000000000000000e+00 0.000000000000000000e+00 -4.234070623126560344e-16 1.752956935089575304e-16 0.000000000000000000e+00 9.631503432901268485e-16 -1.704851306034128652e-15 -1.859378157203783705e-15 -1.538980224126199060e-15 2.649468180547592501e-15 0.000000000000000000e+00 0.000000000000000000e+00 0.000000000000000000e+00 0.000000000000000000e+00 -1.996240614616812550e-15 -4.105776610486363858e-16 0.000000000000000000e+00 -1.288347007736250891e-15 1.171059062177745896e-15
